<?xml version="1.0" encoding="UTF-8"?>
<svg width="800px" height="600px" viewBox="0 0 800 600" version="1.1" xmlns="http://www.w3.org/2000/svg">
    <g stroke="none" stroke-width="1" fill="none" fill-rule="evenodd">
        <!-- Background -->
        <rect fill="#F8FAFC" x="0" y="0" width="800" height="600"/>
        
        <!-- Chat bubbles -->
        <g transform="translate(100, 100)">
            <!-- Left bubble -->
            <path d="M0,0 C0,0 20,-20 40,-20 C60,-20 80,0 80,0 L80,60 C80,60 60,80 40,80 C20,80 0,60 0,60 L0,0 Z" fill="#E2E8F0"/>
            <circle cx="30" cy="30" r="5" fill="#94A3B8"/>
            <circle cx="50" cy="30" r="5" fill="#94A3B8"/>
            
            <!-- Right bubble -->
            <path d="M120,0 C120,0 140,-20 160,-20 C180,-20 200,0 200,0 L200,60 C200,60 180,80 160,80 C140,80 120,60 120,60 L120,0 Z" fill="#3B82F6"/>
            <circle cx="150" cy="30" r="5" fill="#FFFFFF"/>
            <circle cx="170" cy="30" r="5" fill="#FFFFFF"/>
        </g>
        
        <!-- Lock icon -->
        <g transform="translate(350, 250)">
            <rect x="0" y="20" width="100" height="80" rx="10" fill="#3B82F6"/>
            <rect x="30" y="0" width="40" height="40" rx="5" fill="#3B82F6"/>
            <circle cx="50" cy="60" r="10" fill="#FFFFFF"/>
        </g>
        
        <!-- Decorative elements -->
        <circle cx="700" cy="100" r="30" fill="#E2E8F0"/>
        <circle cx="100" cy="500" r="20" fill="#E2E8F0"/>
        <circle cx="650" cy="450" r="25" fill="#E2E8F0"/>
    </g>
</svg> 